<svg id="svg" xmlns="http://www.w3.org/2000/svg" xmlns:xlink="http://www.w3.org/1999/xlink" width="400" height="350.6666666666667" viewBox="0, 0, 400,350.6666666666667"><g id="svgg"><path id="path0" d="M195.695 3.851 C 188.893 3.969,184.894 4.299,184.605 4.766 C 184.332 5.208,180.578 5.633,175.096 5.842 C 170.114 6.032,166.177 6.414,166.348 6.691 C 166.874 7.542,164.752 8.000,160.279 8.000 C 156.980 8.000,156.000 8.222,156.000 8.970 C 156.000 9.698,154.922 9.988,151.661 10.136 C 149.274 10.245,147.342 10.633,147.367 11.000 C 147.424 11.839,145.082 12.514,141.812 12.600 C 140.234 12.642,139.148 13.041,138.908 13.667 C 138.639 14.367,137.547 14.667,135.262 14.667 C 132.807 14.667,132.000 14.914,132.000 15.667 C 132.000 16.365,131.296 16.667,129.667 16.667 C 128.111 16.667,127.333 16.978,127.333 17.600 C 127.333 18.169,126.032 18.846,124.000 19.333 C 122.167 19.773,120.667 20.403,120.667 20.733 C 120.667 21.063,119.617 21.333,118.333 21.333 C 116.704 21.333,116.000 21.635,116.000 22.333 C 116.000 23.000,115.333 23.333,114.000 23.333 C 112.694 23.333,112.000 23.670,112.000 24.303 C 112.000 24.884,111.063 25.449,109.667 25.711 C 108.330 25.961,107.333 26.544,107.333 27.074 C 107.333 27.658,106.595 28.000,105.333 28.000 C 104.000 28.000,103.333 28.333,103.333 29.000 C 103.333 29.556,102.741 30.000,102.000 30.000 C 101.267 30.000,100.667 30.436,100.667 30.970 C 100.667 31.550,99.730 32.115,98.333 32.377 C 96.997 32.628,96.000 33.211,96.000 33.741 C 96.000 34.287,95.308 34.667,94.312 34.667 C 93.384 34.667,92.452 35.117,92.241 35.667 C 92.030 36.217,91.289 36.667,90.595 36.667 C 89.901 36.667,89.333 37.117,89.333 37.667 C 89.333 38.217,88.883 38.667,88.333 38.667 C 87.783 38.667,86.733 39.267,86.000 40.000 C 85.267 40.733,84.367 41.333,84.000 41.333 C 83.633 41.333,83.333 41.783,83.333 42.333 C 83.333 42.889,82.741 43.333,82.000 43.333 C 81.259 43.333,80.667 43.778,80.667 44.333 C 80.667 44.883,80.207 45.333,79.646 45.333 C 79.084 45.333,78.457 45.772,78.251 46.308 C 78.045 46.844,77.261 47.478,76.509 47.717 C 75.756 47.956,74.294 49.017,73.260 50.075 C 72.225 51.134,71.103 52.000,70.767 52.000 C 70.431 52.000,69.999 52.600,69.807 53.333 C 69.615 54.067,68.980 54.667,68.396 54.667 C 67.811 54.667,67.333 55.117,67.333 55.667 C 67.333 56.217,66.883 56.667,66.333 56.667 C 65.783 56.667,65.333 57.117,65.333 57.667 C 65.333 58.217,64.918 58.667,64.411 58.667 C 63.904 58.667,63.332 59.267,63.140 60.000 C 62.948 60.733,62.313 61.333,61.729 61.333 C 61.145 61.333,60.667 61.783,60.667 62.333 C 60.667 62.883,60.217 63.333,59.667 63.333 C 59.117 63.333,58.667 63.783,58.667 64.333 C 58.667 64.883,58.252 65.333,57.744 65.333 C 57.237 65.333,56.665 65.933,56.474 66.667 C 56.282 67.400,55.647 68.000,55.062 68.000 C 54.478 68.000,54.000 68.450,54.000 69.000 C 54.000 69.550,53.550 70.000,53.000 70.000 C 52.450 70.000,52.000 70.418,52.000 70.929 C 52.000 71.439,51.550 72.030,51.000 72.241 C 50.450 72.452,50.000 73.084,50.000 73.646 C 50.000 74.207,49.574 74.667,49.053 74.667 C 48.532 74.667,47.908 75.567,47.667 76.667 C 47.425 77.767,46.801 78.667,46.280 78.667 C 45.759 78.667,45.333 79.117,45.333 79.667 C 45.333 80.217,44.883 80.667,44.333 80.667 C 43.778 80.667,43.333 81.259,43.333 82.000 C 43.333 82.733,42.907 83.333,42.386 83.333 C 41.865 83.333,41.242 84.233,41.000 85.333 C 40.758 86.433,40.135 87.333,39.614 87.333 C 39.093 87.333,38.667 87.933,38.667 88.667 C 38.667 89.400,38.241 90.000,37.720 90.000 C 37.199 90.000,36.575 90.900,36.333 92.000 C 36.092 93.100,35.618 94.000,35.280 94.000 C 34.943 94.000,34.667 94.459,34.667 95.021 C 34.667 95.582,34.217 96.215,33.667 96.426 C 33.117 96.637,32.656 97.152,32.644 97.571 C 32.632 97.990,32.042 99.533,31.333 101.000 C 30.625 102.467,30.035 103.972,30.023 104.345 C 30.010 104.718,29.180 106.218,28.179 107.679 C 26.087 110.727,23.333 116.395,23.333 117.651 C 23.333 118.120,22.883 118.877,22.333 119.333 C 21.783 119.790,21.333 120.859,21.333 121.709 C 21.333 122.559,21.028 123.444,20.654 123.675 C 19.762 124.226,16.722 130.246,16.456 131.989 C 16.342 132.738,15.893 133.707,15.458 134.142 C 15.023 134.577,14.667 135.586,14.667 136.383 C 14.667 137.180,14.259 138.995,13.761 140.416 C 13.264 141.837,12.649 144.400,12.395 146.112 C 12.142 147.824,11.499 149.586,10.967 150.027 C 10.326 150.560,10.000 152.130,10.000 154.693 C 10.000 157.117,9.700 158.655,9.195 158.824 C 8.699 158.989,8.283 160.987,8.111 164.031 C 7.958 166.747,7.455 169.576,6.994 170.318 C 6.482 171.141,5.987 175.480,5.724 181.459 C 5.487 186.845,4.985 192.133,4.609 193.212 C 4.195 194.399,4.070 198.819,4.293 204.419 C 4.494 209.505,4.886 232.438,5.163 255.381 C 5.627 293.822,5.758 297.188,6.833 298.262 C 7.537 298.966,8.000 300.439,8.000 301.976 C 8.000 303.626,8.353 304.659,9.000 304.908 C 9.660 305.161,10.000 306.205,10.000 307.979 C 10.000 309.886,10.282 310.667,10.970 310.667 C 11.550 310.667,12.115 311.603,12.377 313.000 C 12.628 314.336,13.211 315.333,13.741 315.333 C 14.250 315.333,14.667 315.933,14.667 316.667 C 14.667 317.407,15.111 318.000,15.667 318.000 C 16.333 318.000,16.667 318.667,16.667 320.000 C 16.667 321.333,17.000 322.000,17.667 322.000 C 18.217 322.000,18.667 322.415,18.667 322.922 C 18.667 323.429,19.267 324.001,20.000 324.193 C 20.733 324.385,21.333 325.020,21.333 325.604 C 21.333 326.189,21.783 326.667,22.333 326.667 C 22.883 326.667,23.333 327.117,23.333 327.667 C 23.333 328.217,23.783 328.667,24.333 328.667 C 24.883 328.667,25.333 329.117,25.333 329.667 C 25.333 330.217,25.783 330.667,26.333 330.667 C 26.883 330.667,27.933 331.267,28.667 332.000 C 29.400 332.733,30.450 333.333,31.000 333.333 C 31.550 333.333,32.000 333.783,32.000 334.333 C 32.000 334.889,32.593 335.333,33.333 335.333 C 34.074 335.333,34.667 335.778,34.667 336.333 C 34.667 337.000,35.333 337.333,36.667 337.333 C 37.979 337.333,38.667 337.669,38.667 338.310 C 38.667 338.979,39.717 339.427,42.000 339.730 C 44.164 340.017,45.333 340.492,45.333 341.086 C 45.333 341.727,46.244 342.000,48.381 342.000 C 50.201 342.000,51.831 342.403,52.429 343.000 C 53.230 343.802,55.452 344.000,63.643 344.000 C 72.107 344.000,73.923 343.829,74.241 343.000 C 74.504 342.315,75.575 342.000,77.646 342.000 C 79.811 342.000,80.667 341.732,80.667 341.053 C 80.667 340.532,81.542 339.914,82.611 339.679 C 83.680 339.444,84.721 338.820,84.923 338.293 C 85.126 337.765,85.751 337.333,86.312 337.333 C 86.874 337.333,87.333 336.883,87.333 336.333 C 87.333 335.783,87.783 335.333,88.333 335.333 C 88.883 335.333,89.333 334.918,89.333 334.411 C 89.333 333.904,89.933 333.332,90.667 333.140 C 91.400 332.948,92.000 332.313,92.000 331.729 C 92.000 331.145,92.450 330.667,93.000 330.667 C 93.556 330.667,94.000 330.074,94.000 329.333 C 94.000 328.600,94.375 328.075,94.833 328.167 C 95.332 328.266,95.751 327.464,95.876 326.167 C 96.005 324.825,96.449 324.000,97.042 324.000 C 97.569 324.000,98.037 323.550,98.083 323.000 C 98.129 322.450,98.242 321.700,98.333 321.333 C 98.425 320.967,98.537 319.917,98.583 319.000 C 98.633 318.000,99.067 317.333,99.667 317.333 C 100.548 317.333,100.667 310.519,100.667 260.000 C 100.667 209.481,100.548 202.667,99.667 202.667 C 99.022 202.667,98.663 202.014,98.658 200.833 C 98.643 197.979,97.933 196.000,96.922 196.000 C 96.342 196.000,96.000 195.258,96.000 194.000 C 96.000 192.667,95.667 192.000,95.000 192.000 C 94.444 192.000,94.000 191.407,94.000 190.667 C 94.000 189.926,93.556 189.333,93.000 189.333 C 92.450 189.333,92.000 189.001,92.000 188.594 C 92.000 187.570,89.183 184.692,88.167 184.678 C 87.708 184.672,87.333 184.217,87.333 183.667 C 87.333 183.117,86.883 182.667,86.333 182.667 C 85.783 182.667,85.333 182.217,85.333 181.667 C 85.333 181.111,84.741 180.667,84.000 180.667 C 83.267 180.667,82.667 180.256,82.667 179.754 C 82.667 179.191,81.626 178.703,79.948 178.478 C 78.453 178.277,76.868 177.618,76.426 177.014 C 75.331 175.516,50.981 175.741,50.046 177.258 C 49.732 177.766,47.949 178.329,46.083 178.508 C 44.218 178.687,42.854 179.096,43.052 179.417 C 43.250 179.738,42.976 180.000,42.444 180.000 C 40.523 180.000,39.883 173.545,41.631 171.797 C 42.199 171.230,42.786 168.741,43.057 165.750 C 43.385 162.130,43.779 160.667,44.425 160.667 C 45.090 160.667,45.333 159.601,45.333 156.688 C 45.333 153.706,45.550 152.792,46.196 153.039 C 46.793 153.269,47.107 152.596,47.216 150.852 C 47.404 147.864,47.969 145.803,48.735 145.307 C 49.041 145.109,49.364 143.984,49.454 142.807 C 49.572 141.257,49.945 140.667,50.808 140.667 C 51.794 140.667,52.000 140.090,52.000 137.333 C 52.000 134.815,52.244 134.000,53.000 134.000 C 53.698 134.000,54.000 133.296,54.000 131.667 C 54.000 130.095,54.309 129.333,54.947 129.333 C 55.468 129.333,56.086 128.458,56.321 127.389 C 56.556 126.320,57.180 125.279,57.707 125.077 C 58.250 124.868,58.667 123.831,58.667 122.688 C 58.667 121.336,58.998 120.667,59.667 120.667 C 60.217 120.667,60.667 120.088,60.667 119.381 C 60.667 118.674,61.058 117.699,61.537 117.214 C 62.016 116.730,62.607 115.808,62.850 115.167 C 63.093 114.525,63.751 114.000,64.312 114.000 C 65.002 114.000,65.333 113.352,65.333 112.000 C 65.333 110.667,65.667 110.000,66.333 110.000 C 66.889 110.000,67.333 109.407,67.333 108.667 C 67.333 107.933,67.759 107.333,68.280 107.333 C 68.801 107.333,69.425 106.433,69.667 105.333 C 69.908 104.233,70.532 103.333,71.053 103.333 C 71.574 103.333,72.000 102.733,72.000 102.000 C 72.000 101.259,72.444 100.667,73.000 100.667 C 73.550 100.667,74.000 100.217,74.000 99.667 C 74.000 99.117,74.450 98.667,75.000 98.667 C 75.550 98.667,76.000 98.207,76.000 97.646 C 76.000 97.084,76.420 96.463,76.934 96.266 C 77.448 96.069,78.028 95.298,78.223 94.553 C 78.418 93.809,78.882 93.388,79.255 93.618 C 79.628 93.849,80.299 93.354,80.746 92.519 C 81.193 91.683,81.433 90.964,81.279 90.919 C 81.126 90.875,81.975 89.983,83.167 88.938 C 84.358 87.892,85.333 86.653,85.333 86.185 C 85.333 85.717,85.783 85.333,86.333 85.333 C 86.883 85.333,87.333 84.883,87.333 84.333 C 87.333 83.783,87.717 83.333,88.185 83.333 C 88.654 83.333,89.551 82.733,90.179 82.000 C 90.807 81.267,91.699 80.667,92.163 80.667 C 92.626 80.667,94.353 79.167,96.000 77.333 C 97.647 75.500,99.371 74.000,99.831 74.000 C 100.291 74.000,100.667 73.550,100.667 73.000 C 100.667 72.444,101.259 72.000,102.000 72.000 C 102.733 72.000,103.333 71.574,103.333 71.053 C 103.333 70.532,104.233 69.908,105.333 69.667 C 106.433 69.425,107.333 68.801,107.333 68.280 C 107.333 67.759,107.783 67.333,108.333 67.333 C 108.883 67.333,109.333 66.883,109.333 66.333 C 109.333 65.664,110.002 65.333,111.354 65.333 C 112.536 65.333,113.535 64.918,113.759 64.333 C 113.970 63.783,114.494 63.333,114.923 63.333 C 115.352 63.333,116.217 62.733,116.845 62.000 C 117.473 61.267,118.590 60.667,119.327 60.667 C 120.073 60.667,120.667 60.224,120.667 59.667 C 120.667 59.000,121.333 58.667,122.667 58.667 C 124.000 58.667,124.667 58.333,124.667 57.667 C 124.667 56.968,125.370 56.667,127.000 56.667 C 128.889 56.667,129.333 56.413,129.333 55.333 C 129.333 54.254,129.778 54.000,131.667 54.000 C 133.296 54.000,134.000 53.698,134.000 53.000 C 134.000 52.302,134.704 52.000,136.333 52.000 C 137.963 52.000,138.667 51.698,138.667 51.000 C 138.667 50.259,139.444 50.000,141.667 50.000 C 143.858 50.000,144.667 49.736,144.667 49.023 C 144.667 48.356,145.710 47.908,147.960 47.609 C 149.803 47.365,151.408 46.767,151.605 46.253 C 151.841 45.640,153.076 45.333,155.312 45.333 C 157.850 45.333,158.667 45.090,158.667 44.333 C 158.667 43.528,159.704 43.333,164.000 43.333 C 168.060 43.333,169.333 43.116,169.333 42.424 C 169.333 41.341,173.420 40.676,180.260 40.645 C 183.367 40.632,185.446 40.287,186.294 39.645 C 188.122 38.263,211.333 38.192,211.333 39.569 C 211.333 40.242,212.650 40.498,216.500 40.576 C 224.586 40.738,228.667 41.353,228.667 42.410 C 228.667 43.109,229.802 43.333,233.333 43.333 C 237.037 43.333,238.000 43.540,238.000 44.333 C 238.000 45.120,238.926 45.333,242.333 45.333 C 245.741 45.333,246.667 45.547,246.667 46.333 C 246.667 46.978,247.319 47.337,248.500 47.342 C 251.355 47.357,253.333 48.067,253.333 49.078 C 253.333 49.930,256.468 50.425,259.297 50.020 C 260.104 49.904,260.118 50.055,259.383 50.941 C 258.604 51.879,258.813 52.000,261.219 52.000 C 262.934 52.000,264.139 52.367,264.491 52.996 C 264.797 53.543,265.844 54.057,266.817 54.138 C 267.872 54.225,268.711 54.765,268.897 55.475 C 269.111 56.295,269.851 56.667,271.271 56.667 C 272.660 56.667,273.333 56.993,273.333 57.667 C 273.333 58.336,274.002 58.667,275.354 58.667 C 276.497 58.667,277.535 59.083,277.743 59.626 C 277.946 60.154,278.986 60.777,280.056 61.012 C 281.125 61.247,282.000 61.865,282.000 62.386 C 282.000 62.907,282.600 63.333,283.333 63.333 C 284.074 63.333,284.667 63.778,284.667 64.333 C 284.667 65.000,285.333 65.333,286.667 65.333 C 288.000 65.333,288.667 65.667,288.667 66.333 C 288.667 66.883,289.102 67.333,289.634 67.333 C 290.165 67.333,290.840 67.731,291.134 68.217 C 291.427 68.703,292.194 69.295,292.840 69.532 C 293.485 69.769,293.935 70.346,293.840 70.815 C 293.739 71.309,294.453 71.757,295.539 71.881 C 296.569 72.000,297.576 72.525,297.777 73.048 C 297.978 73.572,298.561 74.000,299.071 74.000 C 299.582 74.000,300.000 74.450,300.000 75.000 C 300.000 75.550,300.450 76.000,301.000 76.000 C 301.550 76.000,302.000 76.478,302.000 77.062 C 302.000 77.647,302.600 78.282,303.333 78.474 C 304.067 78.665,304.667 79.213,304.667 79.691 C 304.667 80.170,305.642 80.777,306.833 81.041 C 308.693 81.454,308.811 81.590,307.667 82.000 C 306.522 82.410,306.640 82.546,308.500 82.959 C 309.702 83.225,310.667 83.861,310.667 84.386 C 310.667 84.907,311.096 85.333,311.622 85.333 C 312.147 85.333,312.767 85.933,313.000 86.667 C 313.233 87.400,313.853 88.000,314.378 88.000 C 314.962 88.000,315.333 88.673,315.333 89.729 C 315.333 90.897,315.766 91.571,316.667 91.807 C 317.400 91.999,318.000 92.571,318.000 93.078 C 318.000 93.585,318.450 94.000,319.000 94.000 C 319.550 94.000,320.000 94.450,320.000 95.000 C 320.000 95.550,320.450 96.000,321.000 96.000 C 321.550 96.000,322.000 96.459,322.000 97.021 C 322.000 97.582,322.450 98.215,323.000 98.426 C 323.550 98.637,324.000 99.192,324.000 99.660 C 324.000 100.128,324.609 100.670,325.352 100.865 C 326.096 101.059,326.661 101.469,326.607 101.776 C 326.320 103.407,326.782 104.667,327.667 104.667 C 328.222 104.667,328.667 105.259,328.667 106.000 C 328.667 106.733,329.093 107.333,329.614 107.333 C 330.135 107.333,330.767 108.273,331.019 109.422 C 331.324 110.809,331.654 111.227,332.000 110.667 C 332.346 110.106,332.676 110.525,332.981 111.911 C 333.233 113.060,333.865 114.000,334.386 114.000 C 334.994 114.000,335.333 114.716,335.333 116.000 C 335.333 117.333,335.667 118.000,336.333 118.000 C 336.883 118.000,337.333 118.328,337.333 118.728 C 337.333 119.129,337.933 120.219,338.667 121.151 C 339.400 122.084,340.000 123.406,340.000 124.090 C 340.000 124.774,340.450 125.333,341.000 125.333 C 341.667 125.333,342.000 126.000,342.000 127.333 C 342.000 128.629,342.338 129.333,342.960 129.333 C 343.588 129.333,343.991 130.198,344.126 131.833 C 344.271 133.575,344.620 134.271,345.280 134.129 C 346.075 133.957,346.084 134.096,345.333 135.000 C 344.583 135.904,344.591 136.043,345.387 135.871 C 346.046 135.729,346.396 136.425,346.540 138.167 C 346.676 139.802,347.079 140.667,347.707 140.667 C 348.417 140.667,348.667 141.553,348.667 144.071 C 348.667 146.824,348.858 147.402,349.667 147.092 C 350.427 146.800,350.669 147.223,350.676 148.854 C 350.689 152.002,351.363 154.000,352.411 154.000 C 353.071 154.000,353.333 154.931,353.333 157.278 C 353.333 159.286,353.652 160.662,354.157 160.830 C 354.691 161.008,355.066 163.012,355.227 166.552 C 355.413 170.648,355.705 172.000,356.404 172.000 C 357.095 172.000,357.333 173.024,357.333 176.000 C 357.333 179.111,357.111 180.000,356.333 180.000 C 355.783 180.000,355.333 179.739,355.333 179.420 C 355.333 179.101,353.946 178.684,352.251 178.493 C 350.556 178.302,348.917 177.738,348.610 177.239 C 347.755 175.854,322.000 175.509,322.000 176.883 C 322.000 177.887,320.076 178.642,317.479 178.658 C 316.643 178.663,315.785 179.117,315.574 179.667 C 315.363 180.217,314.773 180.667,314.262 180.667 C 313.751 180.667,313.333 181.096,313.333 181.620 C 313.333 182.145,312.658 182.670,311.833 182.787 C 311.008 182.904,310.431 183.285,310.549 183.634 C 310.668 183.982,310.124 184.505,309.340 184.795 C 308.556 185.085,308.106 185.632,308.340 186.011 C 308.574 186.390,308.416 186.617,307.988 186.517 C 307.559 186.416,306.862 186.933,306.438 187.667 C 306.014 188.400,305.495 189.150,305.285 189.333 C 305.075 189.517,304.709 190.192,304.472 190.833 C 304.236 191.475,303.582 192.000,303.021 192.000 C 302.331 192.000,302.000 192.648,302.000 194.000 C 302.000 195.249,301.657 196.000,301.087 196.000 C 300.493 196.000,300.050 197.099,299.819 199.145 C 299.624 200.874,299.135 202.399,298.732 202.534 C 297.452 202.960,297.719 318.000,299.000 318.000 C 299.741 318.000,300.000 318.778,300.000 321.000 C 300.000 323.115,300.273 324.000,300.926 324.000 C 301.456 324.000,302.039 324.997,302.289 326.333 C 302.551 327.730,303.116 328.667,303.697 328.667 C 304.230 328.667,304.667 329.117,304.667 329.667 C 304.667 330.217,305.117 330.667,305.667 330.667 C 306.222 330.667,306.667 331.259,306.667 332.000 C 306.667 332.741,307.111 333.333,307.667 333.333 C 308.217 333.333,308.667 333.783,308.667 334.333 C 308.667 334.883,309.117 335.333,309.667 335.333 C 310.217 335.333,310.667 335.783,310.667 336.333 C 310.667 336.889,311.259 337.333,312.000 337.333 C 312.733 337.333,313.333 337.770,313.333 338.303 C 313.333 338.884,314.270 339.449,315.667 339.711 C 317.003 339.961,318.000 340.544,318.000 341.074 C 318.000 341.727,318.885 342.000,321.000 342.000 C 323.222 342.000,324.000 342.259,324.000 343.000 C 324.000 344.455,343.034 344.436,344.961 342.979 C 345.678 342.437,347.670 342.000,349.428 342.000 C 351.584 342.000,352.784 341.673,353.172 340.979 C 353.486 340.417,354.926 339.772,356.372 339.544 C 357.817 339.317,359.240 338.727,359.533 338.232 C 359.826 337.738,360.951 337.333,362.033 337.333 C 363.337 337.333,364.000 336.996,364.000 336.333 C 364.000 335.783,364.450 335.333,365.000 335.333 C 365.550 335.333,366.000 334.917,366.000 334.408 C 366.000 333.877,366.997 333.295,368.333 333.044 C 369.730 332.782,370.667 332.217,370.667 331.636 C 370.667 331.103,371.117 330.667,371.667 330.667 C 372.217 330.667,372.667 330.217,372.667 329.667 C 372.667 329.117,373.117 328.667,373.667 328.667 C 374.217 328.667,374.667 328.252,374.667 327.744 C 374.667 327.237,375.267 326.665,376.000 326.474 C 376.733 326.282,377.333 325.647,377.333 325.062 C 377.333 324.478,377.783 324.000,378.333 324.000 C 378.883 324.000,379.333 323.550,379.333 323.000 C 379.333 322.450,379.783 322.000,380.333 322.000 C 380.891 322.000,381.333 321.407,381.333 320.660 C 381.333 319.923,381.933 318.807,382.667 318.179 C 383.400 317.551,384.000 316.654,384.000 316.185 C 384.000 315.717,384.450 315.333,385.000 315.333 C 385.669 315.333,386.000 314.664,386.000 313.312 C 386.000 312.131,386.415 311.132,387.000 310.908 C 387.562 310.692,388.000 309.700,388.000 308.643 C 388.000 307.608,388.493 306.269,389.095 305.667 C 389.697 305.065,390.449 303.185,390.766 301.490 C 391.082 299.794,391.715 298.176,392.171 297.894 C 393.601 297.010,393.354 179.097,391.916 176.000 C 391.306 174.686,390.650 170.918,390.414 167.372 C 390.176 163.777,389.667 160.873,389.228 160.601 C 388.805 160.340,388.269 157.794,388.035 154.943 C 387.780 151.821,387.291 149.653,386.806 149.491 C 386.337 149.335,386.000 147.982,386.000 146.257 C 386.000 144.351,385.671 143.165,385.081 142.939 C 384.569 142.742,383.970 141.148,383.731 139.343 C 383.494 137.559,382.979 135.993,382.585 135.862 C 382.191 135.730,381.709 134.208,381.514 132.478 C 381.284 130.432,380.841 129.333,380.247 129.333 C 379.690 129.333,379.333 128.602,379.333 127.461 C 379.333 126.431,378.893 125.006,378.355 124.294 C 377.816 123.582,377.366 122.186,377.355 121.190 C 377.342 120.078,376.819 119.105,376.000 118.667 C 375.144 118.209,374.667 117.271,374.667 116.048 C 374.667 114.969,374.233 113.976,373.667 113.759 C 373.117 113.548,372.667 112.616,372.667 111.688 C 372.667 110.632,372.292 110.000,371.667 110.000 C 371.003 110.000,370.667 109.336,370.667 108.023 C 370.667 106.729,370.206 105.801,369.333 105.333 C 368.579 104.929,368.000 103.937,368.000 103.048 C 368.000 102.183,367.550 101.303,367.000 101.092 C 366.450 100.881,366.000 100.099,366.000 99.354 C 366.000 98.609,365.720 98.000,365.378 98.000 C 365.036 98.000,364.557 97.370,364.312 96.601 C 364.068 95.831,363.373 94.667,362.768 94.013 C 360.705 91.787,359.333 89.730,359.333 88.864 C 359.333 88.389,359.024 88.000,358.646 88.000 C 358.268 88.000,357.758 87.475,357.513 86.833 C 357.268 86.192,356.527 85.085,355.867 84.374 C 355.207 83.663,354.667 82.721,354.667 82.279 C 354.667 81.837,354.217 81.303,353.667 81.092 C 353.117 80.881,352.667 80.249,352.667 79.688 C 352.667 79.126,352.217 78.667,351.667 78.667 C 351.117 78.667,350.667 78.217,350.667 77.667 C 350.667 77.117,350.217 76.667,349.667 76.667 C 349.117 76.667,348.667 76.273,348.667 75.792 C 348.667 75.312,348.127 74.337,347.466 73.626 C 346.806 72.915,346.066 71.808,345.821 71.167 C 345.576 70.525,345.066 70.000,344.688 70.000 C 344.309 70.000,344.000 69.550,344.000 69.000 C 344.000 68.450,343.570 68.000,343.045 68.000 C 342.520 68.000,341.899 67.400,341.667 66.667 C 341.434 65.933,340.814 65.333,340.288 65.333 C 339.763 65.333,339.333 64.883,339.333 64.333 C 339.333 63.783,338.883 63.333,338.333 63.333 C 337.783 63.333,337.333 62.883,337.333 62.333 C 337.333 61.783,337.049 61.333,336.701 61.333 C 335.783 61.333,332.667 58.313,332.667 57.424 C 332.667 57.007,332.217 56.667,331.667 56.667 C 331.117 56.667,330.667 56.217,330.667 55.667 C 330.667 55.117,330.207 54.667,329.646 54.667 C 329.084 54.667,328.452 54.217,328.241 53.667 C 328.030 53.117,327.506 52.667,327.076 52.667 C 326.646 52.667,325.862 52.067,325.333 51.333 C 324.805 50.600,323.839 50.000,323.186 50.000 C 322.534 50.000,322.000 49.550,322.000 49.000 C 322.000 48.450,321.675 48.000,321.278 48.000 C 320.882 48.000,319.049 46.500,317.206 44.667 C 315.363 42.833,313.278 41.333,312.573 41.333 C 311.868 41.333,311.119 40.883,310.908 40.333 C 310.697 39.783,310.172 39.333,309.743 39.333 C 309.313 39.333,308.529 38.733,308.000 38.000 C 307.471 37.267,306.355 36.667,305.519 36.667 C 304.613 36.667,304.000 36.263,304.000 35.667 C 304.000 35.117,303.587 34.667,303.082 34.667 C 302.577 34.667,301.790 34.217,301.333 33.667 C 300.877 33.117,300.007 32.667,299.400 32.667 C 298.793 32.667,297.783 32.067,297.155 31.333 C 296.527 30.600,295.401 30.000,294.652 30.000 C 293.904 30.000,293.119 29.550,292.908 29.000 C 292.689 28.430,291.695 28.000,290.595 28.000 C 289.373 28.000,288.667 27.653,288.667 27.053 C 288.667 26.532,287.767 25.908,286.667 25.667 C 285.567 25.425,284.667 24.975,284.667 24.667 C 284.667 24.358,283.746 23.904,282.622 23.657 C 281.497 23.410,280.415 22.786,280.217 22.270 C 280.006 21.720,278.924 21.333,277.595 21.333 C 276.029 21.333,275.333 21.026,275.333 20.333 C 275.333 19.676,274.676 19.333,273.415 19.333 C 272.360 19.333,271.130 18.891,270.681 18.351 C 270.233 17.811,268.771 17.167,267.433 16.921 C 266.095 16.676,264.812 16.185,264.582 15.831 C 264.353 15.478,262.752 15.029,261.026 14.834 C 259.272 14.637,257.733 14.080,257.539 13.574 C 257.327 13.022,256.165 12.667,254.572 12.667 C 253.132 12.667,251.289 12.240,250.477 11.719 C 249.664 11.197,247.575 10.563,245.833 10.310 C 243.800 10.014,242.667 9.518,242.667 8.924 C 242.667 8.135,235.493 7.433,232.481 7.927 C 232.196 7.974,231.789 7.560,231.577 7.006 C 231.273 6.215,229.943 6.000,225.355 6.000 C 217.714 6.000,213.333 5.379,213.333 4.297 C 213.333 3.695,212.296 3.475,209.833 3.554 C 207.908 3.616,201.546 3.750,195.695 3.851 M282.333 94.491 C 281.233 94.651,280.093 95.206,279.800 95.725 C 279.507 96.243,278.382 96.667,277.300 96.667 C 275.930 96.667,275.333 96.995,275.333 97.748 C 275.333 98.680,275.177 98.703,274.205 97.915 C 273.439 97.293,273.238 97.267,273.578 97.833 C 273.910 98.386,273.642 98.667,272.784 98.667 C 272.043 98.667,271.337 99.246,271.135 100.019 C 270.941 100.763,270.381 101.288,269.891 101.186 C 269.401 101.084,269.084 101.401,269.186 101.891 C 269.288 102.381,268.763 102.941,268.019 103.135 C 267.275 103.330,266.667 103.904,266.667 104.411 C 266.667 104.918,266.217 105.333,265.667 105.333 C 265.111 105.333,264.667 105.926,264.667 106.667 C 264.667 107.407,264.222 108.000,263.667 108.000 C 263.000 108.000,262.667 108.667,262.667 110.000 C 262.667 111.556,262.370 112.000,261.333 112.000 C 260.254 112.000,260.000 112.444,260.000 114.333 C 260.000 115.802,259.702 116.605,259.196 116.500 C 258.710 116.399,258.224 117.507,257.967 119.299 C 257.733 120.929,257.195 122.379,256.771 122.521 C 255.488 122.949,255.707 144.412,257.000 144.908 C 257.585 145.132,258.000 146.131,258.000 147.312 C 258.000 148.664,258.331 149.333,259.000 149.333 C 259.550 149.333,260.000 149.783,260.000 150.333 C 260.000 150.889,260.593 151.333,261.333 151.333 C 262.155 151.333,262.671 151.781,262.677 152.500 C 262.685 153.393,262.819 153.458,263.251 152.777 C 263.705 152.061,263.893 152.094,264.220 152.944 C 264.466 153.586,265.417 154.000,266.646 154.000 C 267.998 154.000,268.667 154.331,268.667 155.000 C 268.667 155.810,269.741 156.000,274.333 156.000 C 278.926 156.000,280.000 155.810,280.000 155.000 C 280.000 154.302,280.704 154.000,282.333 154.000 C 283.963 154.000,284.667 153.698,284.667 153.000 C 284.667 152.450,284.892 152.032,285.167 152.072 C 286.421 152.253,288.667 151.087,288.667 150.256 C 288.667 149.748,289.117 149.333,289.667 149.333 C 290.217 149.333,290.667 148.918,290.667 148.411 C 290.667 147.904,291.267 147.332,292.000 147.140 C 292.971 146.886,293.333 146.231,293.333 144.729 C 293.333 143.340,293.660 142.667,294.333 142.667 C 295.026 142.667,295.333 141.971,295.333 140.405 C 295.333 139.009,295.716 137.996,296.333 137.759 C 297.481 137.319,297.829 127.333,296.697 127.333 C 296.347 127.333,295.863 126.283,295.623 125.000 C 295.372 123.664,294.789 122.667,294.259 122.667 C 293.750 122.667,293.333 122.217,293.333 121.667 C 293.333 121.117,292.883 120.667,292.333 120.667 C 291.783 120.667,291.333 120.217,291.333 119.667 C 291.333 119.048,290.706 118.667,289.688 118.667 C 288.499 118.667,288.148 118.389,288.426 117.667 C 288.753 116.813,287.676 116.667,281.071 116.667 C 274.638 116.667,273.333 116.835,273.333 117.667 C 273.333 118.770,271.641 119.037,271.019 118.031 C 270.375 116.989,271.404 114.000,272.406 114.000 C 272.986 114.000,273.333 113.272,273.333 112.053 C 273.333 110.432,273.668 110.032,275.333 109.667 C 276.433 109.425,277.333 108.801,277.333 108.280 C 277.333 107.759,277.933 107.333,278.667 107.333 C 279.407 107.333,280.000 106.889,280.000 106.333 C 280.000 105.578,280.815 105.333,283.333 105.333 C 285.852 105.333,286.667 105.578,286.667 106.333 C 286.667 106.889,287.259 107.333,288.000 107.333 C 288.741 107.333,289.333 107.778,289.333 108.333 C 289.333 109.846,296.859 109.727,298.659 108.185 C 300.699 106.438,300.370 98.667,298.256 98.667 C 297.748 98.667,297.333 98.217,297.333 97.667 C 297.333 97.000,296.667 96.667,295.333 96.667 C 294.091 96.667,293.333 96.323,293.333 95.760 C 293.333 95.163,292.135 94.708,289.833 94.432 C 286.214 93.997,285.695 94.001,282.333 94.491 M106.667 96.625 C 105.750 96.896,105.075 97.466,105.167 97.892 C 105.258 98.318,104.883 98.667,104.333 98.667 C 103.651 98.667,103.307 99.407,103.250 101.000 C 103.204 102.283,103.092 103.633,103.000 104.000 C 102.908 104.367,102.796 105.117,102.750 105.667 C 102.704 106.217,102.217 106.667,101.667 106.667 C 100.852 106.667,100.667 107.778,100.667 112.667 C 100.667 117.556,100.481 118.667,99.667 118.667 C 98.805 118.667,98.072 125.569,98.588 128.833 C 98.631 129.108,98.256 129.333,97.754 129.333 C 97.091 129.333,96.753 130.719,96.516 134.421 C 96.273 138.204,95.909 139.665,95.095 140.120 C 94.244 140.596,94.000 141.762,94.000 145.346 C 94.000 149.172,93.830 149.893,93.000 149.574 C 92.306 149.308,92.000 149.621,92.000 150.595 C 92.000 151.368,92.426 152.000,92.947 152.000 C 93.468 152.000,94.092 152.900,94.333 154.000 C 94.836 156.289,99.629 157.076,100.426 155.000 C 100.637 154.450,101.227 154.000,101.738 154.000 C 102.249 154.000,102.667 153.565,102.667 153.033 C 102.667 152.501,103.115 151.815,103.663 151.509 C 104.345 151.127,104.797 149.327,105.094 145.809 C 105.404 142.144,105.788 140.667,106.431 140.667 C 107.104 140.667,107.333 139.479,107.333 136.000 C 107.333 132.459,107.557 131.333,108.260 131.333 C 108.949 131.333,109.254 130.018,109.446 126.216 C 109.609 122.979,110.004 120.999,110.519 120.827 C 110.967 120.678,111.333 120.113,111.333 119.572 C 111.333 119.031,111.638 118.776,112.011 119.007 C 112.384 119.237,112.518 119.701,112.310 120.038 C 112.101 120.376,112.396 120.473,112.965 120.254 C 113.737 119.958,114.000 120.299,114.000 121.595 C 114.000 122.653,114.371 123.333,114.947 123.333 C 115.468 123.333,116.092 124.233,116.333 125.333 C 116.575 126.433,117.199 127.333,117.720 127.333 C 118.327 127.333,118.667 128.050,118.667 129.333 C 118.667 130.667,119.000 131.333,119.667 131.333 C 120.222 131.333,120.667 131.926,120.667 132.667 C 120.667 133.407,121.111 134.000,121.667 134.000 C 122.217 134.000,122.667 134.450,122.667 135.000 C 122.667 135.786,123.593 136.000,127.000 136.000 C 130.407 136.000,131.333 135.786,131.333 135.000 C 131.333 134.450,131.759 134.000,132.280 134.000 C 132.801 134.000,133.425 133.100,133.667 132.000 C 133.908 130.900,134.532 130.000,135.053 130.000 C 135.574 130.000,136.000 129.400,136.000 128.667 C 136.000 127.778,136.444 127.333,137.333 127.333 C 138.074 127.333,138.667 126.889,138.667 126.333 C 138.667 125.783,139.117 125.333,139.667 125.333 C 140.217 125.333,140.667 124.883,140.667 124.333 C 140.667 123.783,141.117 123.333,141.667 123.333 C 142.222 123.333,142.667 122.741,142.667 122.000 C 142.667 121.259,143.111 120.667,143.667 120.667 C 144.217 120.667,144.667 120.217,144.667 119.667 C 144.667 119.092,145.268 118.667,146.080 118.667 C 147.642 118.667,147.747 126.243,146.199 127.220 C 145.809 127.466,145.348 129.881,145.173 132.587 C 144.939 136.223,144.571 137.667,143.762 138.120 C 142.923 138.590,142.667 139.738,142.667 143.033 C 142.667 146.411,142.452 147.333,141.667 147.333 C 140.911 147.333,140.667 148.148,140.667 150.667 C 140.667 153.071,140.925 154.000,141.595 154.000 C 142.106 154.000,142.712 154.489,142.941 155.086 C 143.416 156.324,148.777 156.002,149.208 154.710 C 149.338 154.319,149.836 154.000,150.315 154.000 C 150.793 154.000,151.378 152.972,151.614 151.715 C 151.849 150.459,152.304 149.334,152.623 149.215 C 153.148 149.021,153.893 144.009,153.970 140.167 C 153.988 139.291,154.416 138.667,155.000 138.667 C 155.810 138.667,156.000 137.593,156.000 133.000 C 156.000 128.605,156.208 127.333,156.927 127.333 C 157.615 127.333,157.920 126.032,158.108 122.300 C 158.255 119.398,158.698 117.060,159.154 116.778 C 159.591 116.507,160.149 113.841,160.402 110.811 C 160.730 106.869,161.112 105.333,161.763 105.333 C 162.430 105.333,162.667 104.212,162.667 101.053 C 162.667 96.400,161.858 95.682,157.333 96.320 C 156.417 96.450,155.292 96.581,154.833 96.611 C 154.375 96.642,154.000 97.117,154.000 97.667 C 154.000 98.232,153.403 98.667,152.627 98.667 C 151.824 98.667,151.437 98.962,151.694 99.378 C 151.937 99.770,151.505 100.254,150.734 100.456 C 149.917 100.669,149.333 101.362,149.333 102.117 C 149.333 102.829,149.048 103.236,148.700 103.021 C 148.352 102.805,147.741 103.238,147.343 103.981 C 146.945 104.725,146.180 105.333,145.643 105.333 C 145.106 105.333,144.667 105.783,144.667 106.333 C 144.667 106.883,144.217 107.333,143.667 107.333 C 143.117 107.333,142.667 107.783,142.667 108.333 C 142.667 108.883,142.292 109.339,141.833 109.345 C 140.817 109.359,138.000 112.236,138.000 113.261 C 138.000 113.667,137.550 114.000,137.000 114.000 C 136.450 114.000,136.000 114.450,136.000 115.000 C 136.000 115.550,135.550 116.000,135.000 116.000 C 134.444 116.000,134.000 116.593,134.000 117.333 C 134.000 118.074,133.556 118.667,133.000 118.667 C 132.450 118.667,132.000 119.117,132.000 119.667 C 132.000 121.777,127.496 120.924,127.012 118.722 C 126.777 117.653,126.154 116.612,125.626 116.410 C 125.098 116.207,124.667 115.582,124.667 115.021 C 124.667 114.459,124.391 114.000,124.053 114.000 C 123.715 114.000,123.242 113.100,123.000 112.000 C 122.758 110.900,122.135 110.000,121.614 110.000 C 120.976 110.000,120.667 109.238,120.667 107.667 C 120.667 106.037,120.365 105.333,119.667 105.333 C 119.117 105.333,118.667 104.874,118.667 104.312 C 118.667 103.751,118.218 103.119,117.670 102.909 C 117.123 102.699,116.840 102.258,117.043 101.930 C 117.246 101.602,117.094 101.333,116.706 101.333 C 116.318 101.333,116.000 100.733,116.000 100.000 C 116.000 99.259,115.556 98.667,115.000 98.667 C 114.450 98.667,114.000 98.254,114.000 97.750 C 114.000 96.300,109.897 95.671,106.667 96.625 M169.333 113.000 C 169.333 113.550,168.883 114.000,168.333 114.000 C 166.853 114.000,166.858 127.008,168.340 127.577 C 168.893 127.789,169.307 128.196,169.261 128.481 C 168.700 131.894,169.473 140.667,170.333 140.667 C 170.915 140.667,171.349 141.294,171.370 142.167 C 171.390 142.992,171.564 145.992,171.757 148.833 C 172.089 153.734,172.036 154.000,170.720 154.000 C 169.778 154.000,169.333 154.427,169.333 155.333 C 169.333 156.074,168.889 156.667,168.333 156.667 C 167.783 156.667,167.333 157.117,167.333 157.667 C 167.333 158.217,166.883 158.667,166.333 158.667 C 165.783 158.667,165.333 159.117,165.333 159.667 C 165.333 160.222,164.741 160.667,164.000 160.667 C 163.267 160.667,162.667 161.093,162.667 161.614 C 162.667 162.135,161.767 162.758,160.667 163.000 C 159.567 163.242,158.667 163.865,158.667 164.386 C 158.667 164.907,158.067 165.333,157.333 165.333 C 154.304 165.333,155.528 171.136,158.669 171.667 C 160.138 171.915,161.170 172.392,160.963 172.726 C 160.757 173.060,161.056 173.333,161.627 173.333 C 162.199 173.333,162.667 172.883,162.667 172.333 C 162.667 171.667,163.333 171.333,164.667 171.333 C 166.000 171.333,166.667 171.000,166.667 170.333 C 166.667 169.783,167.126 169.333,167.688 169.333 C 168.249 169.333,168.881 168.883,169.092 168.333 C 169.303 167.783,169.894 167.333,170.405 167.333 C 170.915 167.333,171.333 166.883,171.333 166.333 C 171.333 165.783,171.811 165.333,172.396 165.333 C 172.980 165.333,173.615 164.733,173.807 164.000 C 173.999 163.267,174.571 162.667,175.078 162.667 C 175.585 162.667,176.000 162.217,176.000 161.667 C 176.000 161.117,176.450 160.667,177.000 160.667 C 177.550 160.667,178.000 160.217,178.000 159.667 C 178.000 159.117,178.415 158.667,178.922 158.667 C 179.429 158.667,180.001 158.067,180.193 157.333 C 180.385 156.600,181.020 156.000,181.604 156.000 C 182.222 156.000,182.667 155.442,182.667 154.667 C 182.667 153.926,183.111 153.333,183.667 153.333 C 184.292 153.333,184.667 152.701,184.667 151.646 C 184.667 150.718,185.117 149.785,185.667 149.574 C 186.217 149.363,186.667 148.773,186.667 148.262 C 186.667 147.751,187.103 147.333,187.636 147.333 C 188.217 147.333,188.782 146.397,189.044 145.000 C 189.285 143.717,189.874 142.667,190.355 142.667 C 190.835 142.667,191.425 141.767,191.667 140.667 C 191.908 139.567,192.382 138.667,192.720 138.667 C 193.057 138.667,193.333 138.067,193.333 137.333 C 193.333 136.600,193.759 136.000,194.280 136.000 C 194.801 136.000,195.420 135.125,195.654 134.056 C 195.889 132.986,196.513 131.946,197.041 131.743 C 197.583 131.535,198.000 130.497,198.000 129.354 C 198.000 128.002,198.331 127.333,199.000 127.333 C 199.698 127.333,200.000 126.630,200.000 125.000 C 200.000 123.403,200.306 122.667,200.970 122.667 C 202.147 122.667,202.839 119.439,202.546 115.318 L 202.333 112.333 199.167 112.130 C 196.660 111.969,196.000 112.143,196.000 112.963 C 196.000 113.534,195.583 114.000,195.074 114.000 C 194.549 114.000,193.964 114.982,193.723 116.269 C 193.489 117.517,192.855 118.707,192.315 118.915 C 191.775 119.122,191.333 120.051,191.333 120.979 C 191.333 122.035,190.959 122.667,190.333 122.667 C 189.635 122.667,189.333 123.370,189.333 125.000 C 189.333 126.630,189.032 127.333,188.333 127.333 C 187.635 127.333,187.333 128.037,187.333 129.667 C 187.333 131.572,187.084 132.000,185.971 132.000 C 185.221 132.000,184.657 132.375,184.716 132.833 C 185.009 135.087,184.577 136.667,183.667 136.667 C 183.000 136.667,182.667 137.333,182.667 138.667 C 182.667 141.050,181.023 141.415,180.420 139.167 C 180.199 138.342,180.014 135.517,180.009 132.889 C 180.003 129.666,179.729 128.021,179.167 127.834 C 178.594 127.643,178.262 125.437,178.104 120.778 C 177.935 115.781,177.648 114.000,177.009 114.000 C 176.532 114.000,175.970 113.550,175.759 113.000 C 175.496 112.315,174.425 112.000,172.354 112.000 C 170.113 112.000,169.333 112.258,169.333 113.000 M215.725 112.912 C 215.933 113.454,215.518 113.971,214.704 114.183 C 213.950 114.380,213.333 115.020,213.333 115.604 C 213.333 116.189,212.883 116.667,212.333 116.667 C 211.575 116.667,211.333 117.489,211.333 120.071 C 211.333 122.824,211.142 123.402,210.333 123.092 C 209.527 122.783,209.333 123.353,209.333 126.042 C 209.333 128.390,209.038 129.489,208.333 129.759 C 207.509 130.075,207.333 131.824,207.333 139.738 C 207.333 147.823,207.491 149.333,208.333 149.333 C 208.883 149.333,209.333 149.783,209.333 150.333 C 209.333 150.883,209.783 151.333,210.333 151.333 C 210.889 151.333,211.333 151.926,211.333 152.667 C 211.333 153.746,211.778 154.000,213.667 154.000 C 215.296 154.000,216.000 154.302,216.000 155.000 C 216.000 155.756,216.815 156.000,219.333 156.000 C 221.852 156.000,222.667 155.756,222.667 155.000 C 222.667 154.347,223.320 154.000,224.551 154.000 C 225.883 154.000,226.995 153.328,228.347 151.707 C 230.514 149.108,231.333 149.199,231.333 152.039 C 231.333 153.338,231.671 154.000,232.333 154.000 C 232.883 154.000,233.333 154.450,233.333 155.000 C 233.333 155.698,234.037 156.000,235.667 156.000 C 237.296 156.000,238.000 155.698,238.000 155.000 C 238.000 154.450,238.450 154.000,239.000 154.000 C 239.550 154.000,240.000 153.550,240.000 153.000 C 240.000 152.450,240.420 152.000,240.932 152.000 C 241.598 152.000,241.999 150.664,242.333 147.336 C 242.591 144.770,243.035 142.815,243.320 142.992 C 244.027 143.429,244.667 139.914,244.667 135.583 C 244.667 132.843,244.902 132.000,245.667 132.000 C 246.460 132.000,246.667 131.037,246.667 127.333 C 246.667 123.630,246.873 122.667,247.667 122.667 C 248.453 122.667,248.667 121.741,248.667 118.333 C 248.667 115.889,248.376 114.000,248.000 114.000 C 247.633 114.000,247.333 113.550,247.333 113.000 C 247.333 112.247,246.526 112.000,244.071 112.000 C 241.787 112.000,240.694 112.300,240.426 113.000 C 240.215 113.550,239.582 114.000,239.021 114.000 C 238.240 114.000,238.000 114.784,238.000 117.333 C 238.000 119.735,237.741 120.667,237.073 120.667 C 236.385 120.667,236.080 121.974,235.890 125.732 C 235.697 129.553,235.351 131.005,234.484 131.639 C 233.680 132.226,233.333 133.414,233.333 135.573 C 233.333 137.879,233.079 138.667,232.333 138.667 C 231.783 138.667,231.333 139.117,231.333 139.667 C 231.333 140.217,230.918 140.667,230.411 140.667 C 229.904 140.667,229.332 141.267,229.140 142.000 C 228.948 142.733,228.313 143.333,227.729 143.333 C 227.145 143.333,226.667 143.783,226.667 144.333 C 226.667 145.089,225.852 145.333,223.333 145.333 C 220.815 145.333,220.000 145.089,220.000 144.333 C 220.000 143.783,219.550 143.333,219.000 143.333 C 218.175 143.333,218.000 142.111,218.000 136.333 C 218.000 130.556,218.175 129.333,219.000 129.333 C 219.756 129.333,220.000 128.519,220.000 126.000 C 220.000 123.605,220.260 122.667,220.923 122.667 C 222.020 122.667,222.977 116.468,222.297 113.760 C 221.896 112.160,221.562 112.000,218.615 112.000 C 216.147 112.000,215.459 112.217,215.725 112.912 M282.426 128.333 C 282.637 128.883,283.227 129.333,283.738 129.333 C 284.249 129.333,284.667 129.933,284.667 130.667 C 284.667 131.407,285.111 132.000,285.667 132.000 C 286.333 132.000,286.667 132.667,286.667 134.000 C 286.667 135.333,286.333 136.000,285.667 136.000 C 284.968 136.000,284.667 136.704,284.667 138.333 C 284.667 139.876,284.354 140.667,283.744 140.667 C 283.237 140.667,282.665 141.267,282.474 142.000 C 282.282 142.733,281.647 143.333,281.062 143.333 C 280.478 143.333,280.000 143.783,280.000 144.333 C 280.000 145.695,274.120 145.755,273.600 144.399 C 273.402 143.885,272.662 143.313,271.954 143.128 C 271.246 142.943,270.667 142.313,270.667 141.729 C 270.667 141.145,270.217 140.667,269.667 140.667 C 269.117 140.667,268.667 140.217,268.667 139.667 C 268.667 139.117,268.217 138.667,267.667 138.667 C 266.968 138.667,266.667 137.963,266.667 136.333 C 266.667 134.704,266.968 134.000,267.667 134.000 C 268.217 134.000,268.667 133.550,268.667 133.000 C 268.667 132.450,269.145 132.000,269.729 132.000 C 270.313 132.000,270.948 131.400,271.140 130.667 C 271.387 129.722,272.050 129.333,273.411 129.333 C 274.675 129.333,275.333 128.991,275.333 128.333 C 275.333 127.577,276.150 127.333,278.688 127.333 C 281.054 127.333,282.155 127.628,282.426 128.333 M260.000 196.922 C 260.000 198.040,257.964 198.645,254.167 198.658 C 252.097 198.664,251.333 198.936,251.333 199.667 C 251.333 200.422,250.519 200.667,248.000 200.667 C 245.481 200.667,244.667 200.911,244.667 201.667 C 244.667 202.434,243.815 202.667,241.000 202.667 C 238.185 202.667,237.333 202.899,237.333 203.667 C 237.333 204.257,236.718 204.670,235.833 204.676 C 233.288 204.691,231.333 205.445,231.333 206.411 C 231.333 206.918,230.883 207.333,230.333 207.333 C 229.783 207.333,229.333 207.783,229.333 208.333 C 229.333 208.883,228.883 209.333,228.333 209.333 C 227.455 209.333,227.332 214.652,227.324 253.167 C 227.319 277.275,227.134 297.675,226.913 298.500 C 226.466 300.169,224.667 300.569,224.667 299.000 C 224.667 298.148,222.889 298.000,212.667 298.000 C 202.444 298.000,200.667 298.148,200.667 299.000 C 200.667 299.722,199.926 300.000,198.000 300.000 C 196.140 300.000,195.333 300.287,195.333 300.947 C 195.333 301.468,194.433 302.092,193.333 302.333 C 192.233 302.575,191.333 303.199,191.333 303.720 C 191.333 304.241,190.733 304.667,190.000 304.667 C 189.259 304.667,188.667 305.111,188.667 305.667 C 188.667 306.217,188.217 306.667,187.667 306.667 C 187.117 306.667,186.667 307.117,186.667 307.667 C 186.667 308.217,186.217 308.667,185.667 308.667 C 185.111 308.667,184.667 309.259,184.667 310.000 C 184.667 310.733,184.244 311.333,183.728 311.333 C 182.662 311.333,182.186 315.924,182.559 322.615 C 182.723 325.552,183.044 326.667,183.726 326.667 C 184.318 326.667,184.667 327.378,184.667 328.589 C 184.667 329.950,185.056 330.613,186.000 330.860 C 186.733 331.052,187.333 331.687,187.333 332.271 C 187.333 332.855,187.751 333.333,188.262 333.333 C 188.773 333.333,189.363 333.783,189.574 334.333 C 189.785 334.883,190.718 335.333,191.646 335.333 C 192.641 335.333,193.333 335.713,193.333 336.259 C 193.333 336.786,194.319 337.370,195.618 337.614 C 196.875 337.849,198.024 338.406,198.173 338.852 C 198.460 339.713,198.604 339.741,203.500 339.898 C 205.825 339.973,206.667 340.266,206.667 341.000 C 206.667 341.822,207.852 342.000,213.333 342.000 C 218.565 342.000,220.000 341.802,220.000 341.078 C 220.000 340.436,221.301 340.016,224.280 339.697 C 227.040 339.401,228.690 338.900,228.926 338.286 C 229.127 337.762,230.036 337.333,230.946 337.333 C 231.856 337.333,232.840 336.936,233.134 336.450 C 233.427 335.964,234.211 335.366,234.876 335.121 C 235.540 334.876,235.898 334.374,235.670 334.005 C 235.441 333.635,235.872 333.333,236.627 333.333 C 237.403 333.333,238.000 332.898,238.000 332.333 C 238.000 331.783,238.450 331.333,239.000 331.333 C 239.556 331.333,240.000 330.741,240.000 330.000 C 240.000 329.267,240.417 328.667,240.926 328.667 C 241.456 328.667,242.039 327.670,242.289 326.333 C 242.530 325.050,243.013 324.000,243.364 324.000 C 243.761 324.000,244.000 307.862,244.000 281.000 C 244.000 238.444,244.014 238.000,245.333 238.000 C 246.067 238.000,246.667 237.589,246.667 237.086 C 246.667 236.494,247.825 236.018,249.950 235.736 C 251.756 235.497,253.348 234.956,253.488 234.536 C 253.628 234.115,255.601 233.636,257.872 233.472 C 260.793 233.260,262.000 232.904,262.000 232.253 C 262.000 231.625,262.843 231.333,264.661 231.333 C 266.600 231.333,267.548 230.972,268.155 230.000 C 268.613 229.267,269.341 228.667,269.774 228.667 C 272.130 228.667,271.878 201.875,269.500 199.499 C 268.675 198.674,267.700 198.000,267.333 198.000 C 266.967 198.000,266.667 197.550,266.667 197.000 C 266.667 196.244,265.852 196.000,263.333 196.000 C 260.940 196.000,260.000 196.260,260.000 196.922 M134.000 215.000 C 134.000 215.698,133.296 216.000,131.667 216.000 C 130.037 216.000,129.333 216.302,129.333 217.000 C 129.333 217.550,128.883 218.000,128.333 218.000 C 127.529 218.000,127.333 219.031,127.333 223.280 L 127.333 228.561 129.333 229.000 C 130.433 229.242,131.333 229.865,131.333 230.386 C 131.333 231.193,136.627 231.333,167.000 231.333 C 197.373 231.333,202.667 231.193,202.667 230.386 C 202.667 229.865,203.567 229.242,204.667 229.000 L 206.667 228.561 206.667 223.280 C 206.667 219.031,206.471 218.000,205.667 218.000 C 205.117 218.000,204.667 217.550,204.667 217.000 C 204.667 216.331,203.998 216.000,202.646 216.000 C 201.464 216.000,200.465 215.585,200.241 215.000 C 199.907 214.130,195.584 214.000,166.929 214.000 C 138.103 214.000,134.000 214.125,134.000 215.000 M130.000 252.418 C 130.000 252.990,129.400 253.615,128.667 253.807 C 126.918 254.264,126.620 263.768,128.333 264.426 C 128.883 264.637,129.333 265.227,129.333 265.738 C 129.333 266.328,130.071 266.667,131.354 266.667 C 132.536 266.667,133.535 267.082,133.759 267.667 C 134.093 268.537,138.408 268.667,167.000 268.667 C 195.592 268.667,199.907 268.537,200.241 267.667 C 200.465 267.082,201.464 266.667,202.646 266.667 C 203.998 266.667,204.667 266.336,204.667 265.667 C 204.667 265.117,205.117 264.667,205.667 264.667 C 207.925 264.667,207.006 254.679,204.667 253.796 C 203.567 253.381,202.667 252.652,202.667 252.177 C 202.667 251.479,195.669 251.318,166.333 251.345 C 133.867 251.374,130.000 251.488,130.000 252.418 M134.000 287.970 C 134.000 288.320,132.950 288.803,131.667 289.044 C 130.330 289.295,129.333 289.877,129.333 290.408 C 129.333 290.917,128.883 291.333,128.333 291.333 C 126.386 291.333,126.966 300.507,129.034 302.424 C 131.206 304.436,166.153 304.968,166.908 303.000 C 167.119 302.450,167.751 302.000,168.312 302.000 C 168.874 302.000,169.333 301.582,169.333 301.071 C 169.333 300.561,169.783 299.970,170.333 299.759 C 171.019 299.496,171.333 298.425,171.333 296.354 C 171.333 294.113,171.075 293.333,170.333 293.333 C 169.783 293.333,169.333 292.950,169.333 292.481 C 169.333 291.516,167.003 289.333,165.971 289.333 C 165.597 289.333,165.116 288.876,164.901 288.316 C 164.580 287.479,164.325 287.450,163.461 288.150 C 162.649 288.807,162.524 288.811,162.911 288.167 C 163.306 287.510,160.293 287.333,148.706 287.333 C 139.812 287.333,134.000 287.585,134.000 287.970 " stroke="none" fill="#000000" fill-rule="evenodd"></path></g></svg>